<svg version="1.1" id="Layer_1" xmlns="http://www.w3.org/2000/svg" xmlns:xlink="http://www.w3.org/1999/xlink" x="0px" y="0px"
	 width="100%" viewBox="0 0 427 584" enable-background="new 0 0 427 584" xml:space="preserve">
<path fill="none" opacity="1.000000" stroke="none" 
d="
M1.000000,213.000000 
	C1.000000,142.017426 1.000000,71.534843 1.000000,1.026133 
	C143.280731,1.026133 285.561493,1.026133 427.921112,1.026133 
	C427.921112,195.565933 427.921112,390.131897 427.921112,584.848938 
	C285.666779,584.848938 143.333420,584.848938 1.000000,584.848938 
	C1.000000,461.105194 1.000000,337.302582 1.000000,213.000000 
M338.649902,359.796265 
	C339.168457,358.915588 339.687012,358.034882 340.729828,356.836761 
	C341.202911,355.954865 341.675995,355.072968 342.603577,353.961761 
	C342.798828,353.689514 342.994080,353.417297 343.680176,352.633087 
	C346.997437,347.414001 350.406708,342.250793 353.616333,336.966309 
	C368.826172,311.923950 382.923096,286.319550 393.133484,258.743103 
	C399.243774,242.240341 403.823761,225.385345 404.925262,207.752838 
	C406.036072,189.971573 404.427490,172.265533 400.676422,154.972321 
	C396.101776,133.882431 387.684601,114.148071 375.636993,96.087738 
	C366.215790,81.964592 354.969879,69.562447 342.066925,58.476288 
	C327.018280,45.546547 310.494720,35.271927 292.106079,27.911150 
	C279.211761,22.749708 266.113129,18.571190 252.072968,17.834528 
	C238.821045,17.139225 225.497452,14.648067 212.374557,15.513057 
	C198.263916,16.443150 184.208267,19.771423 170.382446,23.105738 
	C147.519928,28.619389 127.288017,40.010342 109.251839,54.719639 
	C99.180099,62.933590 90.415916,72.913208 81.860222,82.788307 
	C66.347672,100.693085 55.769676,121.533211 49.583271,144.278107 
	C45.985302,157.506363 43.190430,171.201523 42.240002,184.840332 
	C40.968475,203.086914 41.848190,221.511200 47.954605,239.125885 
	C53.303402,254.555054 58.314999,270.155365 64.730270,285.142975 
	C69.633057,296.597076 76.385597,307.274261 82.518959,318.182526 
	C88.356117,328.563995 93.828751,339.231323 100.578766,349.001099 
	C112.982162,366.953430 126.206070,384.338837 139.039078,402.676941 
	C141.031677,405.109192 143.024292,407.541412 144.998779,409.998779 
	C144.998779,409.998779 145.023331,409.981415 145.276871,410.620636 
	C148.240799,414.475372 151.204727,418.330078 154.094696,422.772614 
	C154.409882,423.178497 154.725067,423.584381 155.044724,424.764526 
	C156.347580,426.882538 157.650421,429.000580 159.247421,431.765015 
	C161.823151,433.530579 164.398880,435.296143 167.180817,437.643890 
	C168.104477,438.435730 169.028137,439.227539 170.020508,440.721527 
	C171.988129,443.115997 173.955734,445.510468 176.502197,448.256256 
	C178.731812,450.188171 180.961426,452.120087 183.112961,454.763214 
	C185.038223,457.293610 186.659973,460.148438 188.949066,462.289978 
	C194.493286,467.476929 200.348465,472.331512 206.265137,477.926392 
	C207.816437,479.432190 209.329132,480.980316 210.925735,482.436432 
	C217.593430,488.517151 225.201645,489.830444 231.312866,485.784210 
	C233.782913,484.148804 236.197723,482.317810 238.272064,480.215149 
	C251.096161,467.215790 263.909821,454.203247 276.522614,440.999817 
	C281.293030,436.005981 285.616608,430.571350 289.972839,425.198944 
	C297.546936,415.857880 305.187683,406.559479 312.422089,396.958069 
	C318.260681,389.209229 323.541687,381.040253 329.644562,372.785034 
	C330.101349,371.861755 330.558136,370.938507 331.638000,369.754211 
	C333.526398,366.930328 335.414795,364.106445 337.646179,360.949646 
	C337.829742,360.687347 337.979340,360.406921 338.649902,359.796265 
z"/>
<path fill="#277043" opacity="1.000000" stroke="none" 
d="
M342.149109,354.191101 
	C341.675995,355.072968 341.202911,355.954865 340.153625,356.952698 
	C339.367340,357.052704 339.157318,357.036774 339.007904,356.654449 
	C340.449432,353.100189 341.856537,349.923340 343.207153,346.722687 
	C356.685303,314.782501 362.369202,281.299500 363.018555,246.810776 
	C363.090210,243.004333 363.333252,239.190857 363.714233,235.402512 
	C364.741272,225.190216 366.232941,215.012329 366.899811,204.779068 
	C367.823456,190.605042 365.626526,176.675385 362.468903,162.874359 
	C358.374603,144.979340 350.791107,128.560272 340.011536,113.894714 
	C333.470764,104.996048 325.626984,96.917595 317.597717,89.281189 
	C303.819702,76.177277 287.438232,67.084877 269.420715,61.095497 
	C248.789459,54.237255 227.640869,52.428162 206.037598,54.933765 
	C188.394547,56.980049 171.689407,61.821587 156.070221,70.339195 
	C138.356491,79.999046 123.282990,92.583031 110.691513,108.520485 
	C99.058311,123.245026 90.817688,139.500107 85.483963,157.273224 
	C79.982407,175.605545 78.748665,194.330658 80.841393,213.434982 
	C82.579895,229.305725 86.912880,244.375671 93.500801,258.711090 
	C102.593285,278.496460 116.247635,294.921112 133.159409,308.610199 
	C147.775330,320.440948 164.076233,328.965027 182.173050,334.305084 
	C197.574829,338.849884 213.108871,341.277222 229.164017,340.042725 
	C231.506653,339.862579 233.875092,340.017700 237.667938,340.017700 
	C232.065323,346.721863 227.459000,352.135010 222.960159,357.636047 
	C210.301010,373.115234 194.961212,385.528168 178.012665,395.860413 
	C168.719986,401.525421 158.692841,405.985687 148.675766,410.856812 
	C147.244202,410.476776 146.133774,410.229095 145.023331,409.981415 
	C145.023331,409.981415 144.998779,409.998779 145.000885,409.621765 
	C143.031326,406.816681 141.059631,404.388611 139.087952,401.960571 
	C126.206070,384.338837 112.982162,366.953430 100.578766,349.001099 
	C93.828751,339.231323 88.356117,328.563995 82.518959,318.182526 
	C76.385597,307.274261 69.633057,296.597076 64.730270,285.142975 
	C58.314999,270.155365 53.303402,254.555054 47.954605,239.125885 
	C41.848190,221.511200 40.968475,203.086914 42.240002,184.840332 
	C43.190430,171.201523 45.985302,157.506363 49.583271,144.278107 
	C55.769676,121.533211 66.347672,100.693085 81.860222,82.788307 
	C90.415916,72.913208 99.180099,62.933590 109.251839,54.719639 
	C127.288017,40.010342 147.519928,28.619389 170.382446,23.105738 
	C184.208267,19.771423 198.263916,16.443150 212.374557,15.513057 
	C225.497452,14.648067 238.821045,17.139225 252.072968,17.834528 
	C266.113129,18.571190 279.211761,22.749708 292.106079,27.911150 
	C310.494720,35.271927 327.018280,45.546547 342.066925,58.476288 
	C354.969879,69.562447 366.215790,81.964592 375.636993,96.087738 
	C387.684601,114.148071 396.101776,133.882431 400.676422,154.972321 
	C404.427490,172.265533 406.036072,189.971573 404.925262,207.752838 
	C403.823761,225.385345 399.243774,242.240341 393.133484,258.743103 
	C382.923096,286.319550 368.826172,311.923950 353.616333,336.966309 
	C350.406708,342.250793 346.997437,347.414001 343.190216,352.982544 
	C342.516541,353.618347 342.332825,353.904724 342.149109,354.191101 
z"/>
<path fill="#F1F5E7" opacity="1.000000" stroke="none" 
d="
M206.078308,477.320068 
	C200.348465,472.331512 194.493286,467.476929 188.949066,462.289978 
	C186.659973,460.148438 185.038223,457.293610 183.528488,454.435303 
	C190.843033,450.281860 197.782303,446.526581 204.624573,442.602173 
	C208.204041,440.549133 208.665344,437.492950 206.399292,434.174744 
	C204.017105,430.686432 201.416855,432.302826 198.697388,433.964996 
	C191.929657,438.101593 185.070358,442.088348 177.932312,445.979858 
	C175.061783,443.889404 172.506790,441.954407 169.951797,440.019379 
	C169.028137,439.227539 168.104477,438.435730 167.086761,436.985291 
	C165.103455,433.606354 163.214203,430.886078 160.921112,427.584290 
	C159.898331,429.421204 159.425797,430.269897 158.953247,431.118591 
	C157.650421,429.000580 156.347580,426.882538 155.335938,424.365417 
	C156.096420,423.422333 156.565674,422.878296 157.372406,422.172119 
	C184.397064,411.156219 206.535645,393.927246 226.136154,373.160278 
	C226.113434,373.147736 226.140625,373.186127 226.428452,373.066162 
	C227.656097,371.895050 228.595917,370.843903 229.612549,369.731506 
	C229.689362,369.670258 229.793259,369.503479 230.053833,369.332550 
	C238.611923,358.489746 246.909439,347.817841 255.155273,337.126434 
	C255.103577,337.106903 255.150177,337.207123 255.506653,337.077972 
	C268.515717,332.414001 281.168274,327.879181 294.656769,323.044769 
	C293.930145,325.662506 293.524872,327.874329 292.702148,329.918152 
	C291.312805,333.369537 291.595825,336.282379 295.249603,337.828918 
	C298.866516,339.359833 300.880768,337.110565 302.152161,334.041656 
	C305.586945,325.750732 308.970245,317.438538 312.567932,309.090515 
	C313.012268,308.894440 313.137970,308.672119 313.462524,308.254852 
	C327.904022,296.661011 339.518097,283.087128 348.428040,267.362488 
	C348.711426,268.413391 348.834625,269.207489 348.836304,270.398132 
	C347.571259,295.587463 341.299835,319.093353 330.379974,341.297302 
	C305.381653,392.127563 268.834106,433.044678 222.794693,465.712341 
	C217.262466,469.637787 211.652328,473.453491 206.078308,477.320068 
M244.464020,395.920288 
	C237.591019,402.202057 230.722031,408.488220 223.842911,414.763306 
	C221.359055,417.029053 220.064911,419.517456 222.549286,422.547394 
	C225.213272,425.796448 228.016586,425.042206 230.711197,422.570068 
	C236.961243,416.836029 243.308487,411.196442 249.307755,405.209351 
	C250.666077,403.853790 251.904602,400.543671 251.183868,399.365448 
	C250.078339,397.558258 247.226486,396.819336 244.464020,395.920288 
M276.617981,355.949127 
	C271.976715,362.232910 267.362122,368.536652 262.682678,374.791901 
	C260.430725,377.802216 260.284302,380.662323 263.333832,383.090698 
	C266.424896,385.552155 268.859436,384.127869 270.890015,381.356659 
	C275.608154,374.917572 280.323395,368.476257 285.075226,362.062103 
	C287.025635,359.429321 288.255127,356.711792 285.238953,354.156494 
	C282.229675,351.607117 279.418427,352.417786 276.617981,355.949127 
z"/>
<path fill="#214D32" opacity="1.000000" stroke="none" 
d="
M206.171722,477.623230 
	C211.652328,473.453491 217.262466,469.637787 222.794693,465.712341 
	C268.834106,433.044678 305.381653,392.127563 330.379974,341.297302 
	C341.299835,319.093353 347.571259,295.587463 349.201660,270.471375 
	C349.792358,273.762451 350.240326,277.406250 349.934235,280.985565 
	C349.083679,290.932312 347.954498,300.856232 346.829956,310.777222 
	C346.706207,311.868958 346.097534,313.050598 345.375793,313.905090 
	C341.850372,318.078796 340.667908,322.876129 340.933868,328.239777 
	C341.009705,329.768219 340.715179,332.363770 339.864044,332.716370 
	C334.963409,334.746643 334.149902,339.091766 332.776306,343.356140 
	C330.872345,349.266998 325.951691,353.886017 325.993652,360.800507 
	C326.009613,363.430359 322.290405,366.150238 322.445923,368.696411 
	C322.687927,372.658997 320.746094,372.701752 318.165192,373.020020 
	C317.214905,373.137177 316.087128,373.234131 315.394104,373.785217 
	C311.242371,377.086548 309.871613,383.876221 312.231781,390.107910 
	C313.182556,389.417328 314.461060,388.983521 314.798798,388.162628 
	C316.894196,383.069763 321.460876,380.170166 324.985504,376.361176 
	C326.161469,375.090332 327.629608,374.089935 328.990356,372.989197 
	C329.016510,373.012451 329.070007,373.057617 329.070007,373.057617 
	C323.541687,381.040253 318.260681,389.209229 312.422089,396.958069 
	C305.187683,406.559479 297.546936,415.857880 289.972839,425.198944 
	C285.616608,430.571350 281.293030,436.005981 276.522614,440.999817 
	C263.909821,454.203247 251.096161,467.215790 238.272064,480.215149 
	C236.197723,482.317810 233.782913,484.148804 231.312866,485.784210 
	C225.201645,489.830444 217.593430,488.517151 210.925735,482.436432 
	C209.329132,480.980316 207.816437,479.432190 206.171722,477.623230 
z"/>
<path fill="#214D32" opacity="1.000000" stroke="none" 
d="
M226.158875,373.172791 
	C206.535645,393.927246 184.397064,411.156219 157.016617,422.119202 
	C155.605133,422.213898 154.886887,422.199341 154.168655,422.184814 
	C151.204727,418.330078 148.240799,414.475372 145.150101,410.301025 
	C146.133774,410.229095 147.244202,410.476776 148.851425,411.187103 
	C152.092224,414.006805 163.763885,415.598877 166.795349,414.514343 
	C176.002090,411.220428 181.497025,401.228973 192.129440,400.568420 
	C192.357681,400.554199 192.539703,400.087463 192.776093,399.866943 
	C194.915802,397.870941 197.280777,396.068115 199.163254,393.854492 
	C203.351822,388.928894 211.074234,387.111694 211.588943,380.267242 
	C214.218872,378.868103 217.128693,378.309631 217.862534,376.736267 
	C219.747681,372.694519 222.709518,372.730927 226.158875,373.172791 
z"/>
<path fill="#274D34" opacity="1.000000" stroke="none" 
d="
M178.247818,446.135284 
	C185.070358,442.088348 191.929657,438.101593 198.697388,433.964996 
	C201.416855,432.302826 204.017105,430.686432 206.399292,434.174744 
	C208.665344,437.492950 208.204041,440.549133 204.624573,442.602173 
	C197.782303,446.526581 190.843033,450.281860 183.567535,454.079681 
	C180.961426,452.120087 178.731812,450.188171 176.388275,447.829712 
	C176.932175,446.980530 177.589996,446.557922 178.247818,446.135284 
z"/>
<path fill="#214D32" opacity="1.000000" stroke="none" 
d="
M337.303192,361.282562 
	C335.414795,364.106445 333.526398,366.930328 331.309448,369.868561 
	C330.980896,369.982910 330.946533,369.951050 330.964111,369.542542 
	C330.733490,364.755524 331.788849,361.340790 337.073975,361.068237 
	C337.150330,361.139740 337.303192,361.282562 337.303192,361.282562 
z"/>
<path fill="#E3E2D5" opacity="1.000000" stroke="none" 
d="
M159.100342,431.441803 
	C159.425797,430.269897 159.898331,429.421204 160.921112,427.584290 
	C163.214203,430.886078 165.103455,433.606354 166.983643,436.694153 
	C164.398880,435.296143 161.823151,433.530579 159.100342,431.441803 
z"/>
<path fill="#E3E2D5" opacity="1.000000" stroke="none" 
d="
M177.932312,445.979858 
	C177.589996,446.557922 176.932175,446.980530 176.098846,447.654053 
	C173.955734,445.510468 171.988129,443.115997 169.986145,440.370453 
	C172.506790,441.954407 175.061783,443.889404 177.932312,445.979858 
z"/>
<path fill="#214D32" opacity="1.000000" stroke="none" 
d="
M139.063507,402.318756 
	C141.059631,404.388611 143.031326,406.816681 145.009949,409.609192 
	C143.024292,407.541412 141.031677,405.109192 139.063507,402.318756 
z"/>
<path fill="#E3E2D5" opacity="1.000000" stroke="none" 
d="
M154.131683,422.478699 
	C154.886887,422.199341 155.605133,422.213898 156.679138,422.281372 
	C156.565674,422.878296 156.096420,423.422333 155.333710,423.978271 
	C154.725067,423.584381 154.409882,423.178497 154.131683,422.478699 
z"/>
<path fill="#214D32" opacity="1.000000" stroke="none" 
d="
M338.947266,357.020813 
	C339.157318,357.036774 339.367340,357.052704 339.891479,357.111420 
	C339.687012,358.034882 339.168457,358.915588 338.343536,359.920135 
	C338.037170,360.044006 337.976379,359.982452 337.986481,359.652405 
	C338.313477,358.555206 338.630371,357.787994 338.947266,357.020813 
z"/>
<path fill="#214D32" opacity="1.000000" stroke="none" 
d="
M330.997925,369.999084 
	C330.558136,370.938507 330.101349,371.861755 329.357300,372.921326 
	C329.070007,373.057617 329.016510,373.012451 329.009216,372.644470 
	C329.650116,371.501343 330.298340,370.726196 330.946533,369.951050 
	C330.946533,369.951050 330.980896,369.982910 330.997925,369.999084 
z"/>
<path fill="#214D32" opacity="1.000000" stroke="none" 
d="
M338.066071,360.076202 
	C337.979340,360.406921 337.829742,360.687347 337.474670,361.116089 
	C337.303192,361.282562 337.150330,361.139740 337.187317,360.855408 
	C337.421173,360.306061 337.671844,360.109863 337.976379,359.982452 
	C337.976379,359.982452 338.037170,360.044006 338.066071,360.076202 
z"/>
<path fill="#1E5031" opacity="1.000000" stroke="none" 
d="
M342.376343,354.076416 
	C342.332825,353.904724 342.516541,353.618347 342.944794,353.238525 
	C342.994080,353.417297 342.798828,353.689514 342.376343,354.076416 
z"/>
<path fill="#1E5031" opacity="1.000000" stroke="none" 
d="
M337.986481,359.652405 
	C337.671844,360.109863 337.421173,360.306061 337.110962,360.783875 
	C331.788849,361.340790 330.733490,364.755524 330.964142,369.542542 
	C330.298340,370.726196 329.650116,371.501343 328.983032,372.621216 
	C327.629608,374.089935 326.161469,375.090332 324.985504,376.361176 
	C321.460876,380.170166 316.894196,383.069763 314.798798,388.162628 
	C314.461060,388.983521 313.182556,389.417328 312.231781,390.107910 
	C309.871613,383.876221 311.242371,377.086548 315.394104,373.785217 
	C316.087128,373.234131 317.214905,373.137177 318.165192,373.020020 
	C320.746094,372.701752 322.687927,372.658997 322.445923,368.696411 
	C322.290405,366.150238 326.009613,363.430359 325.993652,360.800507 
	C325.951691,353.886017 330.872345,349.266998 332.776306,343.356140 
	C334.149902,339.091766 334.963409,334.746643 339.864044,332.716370 
	C340.715179,332.363770 341.009705,329.768219 340.933868,328.239777 
	C340.667908,322.876129 341.850372,318.078796 345.375793,313.905090 
	C346.097534,313.050598 346.706207,311.868958 346.829956,310.777222 
	C347.954498,300.856232 349.083679,290.932312 349.934235,280.985565 
	C350.240326,277.406250 349.792358,273.762451 349.323181,270.074860 
	C348.834625,269.207489 348.711426,268.413391 348.059082,267.365082 
	C346.236725,268.075256 344.741211,268.858429 343.686523,270.036346 
	C339.816772,274.358124 336.088379,278.806641 332.319519,283.218353 
	C331.572327,284.093018 330.431793,284.929138 330.238678,285.930725 
	C329.105255,291.809265 324.530457,294.962677 319.893829,296.757568 
	C313.918762,299.070618 313.445251,303.395874 313.138947,308.379333 
	C313.137970,308.672119 313.012268,308.894440 312.158539,309.063904 
	C307.917725,309.300385 308.142059,312.062347 308.009705,314.535065 
	C307.784943,318.734253 305.234161,321.404785 302.010895,324.916382 
	C301.208649,322.527100 300.498047,321.208099 300.350708,319.828918 
	C299.816864,314.832367 298.036835,313.778564 293.917664,316.495056 
	C290.307617,318.875793 287.136200,322.032288 283.327545,323.977814 
	C275.754028,327.846497 268.138611,332.086975 259.246033,331.872375 
	C254.993469,331.769745 254.643707,333.996704 255.150177,337.207123 
	C255.150177,337.207123 255.103577,337.106903 254.789673,337.118408 
	C252.468628,338.502106 250.040070,339.519684 248.532242,341.311920 
	C243.722488,347.028870 238.846710,352.771759 234.826172,359.037109 
	C232.798477,362.196930 227.523941,364.189941 229.793259,369.503479 
	C229.793259,369.503479 229.689362,369.670258 229.227554,369.529663 
	C225.179993,368.780670 226.228775,371.376434 226.140625,373.186127 
	C226.140625,373.186127 226.113434,373.147736 226.136154,373.160278 
	C222.709518,372.730927 219.747681,372.694519 217.862534,376.736267 
	C217.128693,378.309631 214.218872,378.868103 211.588943,380.267242 
	C211.074234,387.111694 203.351822,388.928894 199.163254,393.854492 
	C197.280777,396.068115 194.915802,397.870941 192.776093,399.866943 
	C192.539703,400.087463 192.357681,400.554199 192.129440,400.568420 
	C181.497025,401.228973 176.002090,411.220428 166.795349,414.514343 
	C163.763885,415.598877 152.092224,414.006805 149.172546,411.319458 
	C158.692841,405.985687 168.719986,401.525421 178.012665,395.860413 
	C194.961212,385.528168 210.301010,373.115234 222.960159,357.636047 
	C227.459000,352.135010 232.065323,346.721863 237.667938,340.017700 
	C233.875092,340.017700 231.506653,339.862579 229.164017,340.042725 
	C213.108871,341.277222 197.574829,338.849884 182.173050,334.305084 
	C164.076233,328.965027 147.775330,320.440948 133.159409,308.610199 
	C116.247635,294.921112 102.593285,278.496460 93.500801,258.711090 
	C86.912880,244.375671 82.579895,229.305725 80.841393,213.434982 
	C78.748665,194.330658 79.982407,175.605545 85.483963,157.273224 
	C90.817688,139.500107 99.058311,123.245026 110.691513,108.520485 
	C123.282990,92.583031 138.356491,79.999046 156.070221,70.339195 
	C171.689407,61.821587 188.394547,56.980049 206.037598,54.933765 
	C227.640869,52.428162 248.789459,54.237255 269.420715,61.095497 
	C287.438232,67.084877 303.819702,76.177277 317.597717,89.281189 
	C325.626984,96.917595 333.470764,104.996048 340.011536,113.894714 
	C350.791107,128.560272 358.374603,144.979340 362.468903,162.874359 
	C365.626526,176.675385 367.823456,190.605042 366.899811,204.779068 
	C366.232941,215.012329 364.741272,225.190216 363.714233,235.402512 
	C363.333252,239.190857 363.090210,243.004333 363.018555,246.810776 
	C362.369202,281.299500 356.685303,314.782501 343.207153,346.722687 
	C341.856537,349.923340 340.449432,353.100189 339.007904,356.654449 
	C338.630371,357.787994 338.313477,358.555206 337.986481,359.652405 
z"/>
<path fill="#E3E2D5" opacity="1.000000" stroke="none" 
d="
M206.078308,477.320068 
	C200.348465,472.331512 194.493286,467.476929 188.949066,462.289978 
	C186.659973,460.148438 185.038223,457.293610 183.528488,454.435303 
	C190.843033,450.281860 197.782303,446.526581 204.624573,442.602173 
	C208.204041,440.549133 208.665344,437.492950 206.399292,434.174744 
	C204.017105,430.686432 201.416855,432.302826 198.697388,433.964996 
	C191.929657,438.101593 185.070358,442.088348 177.932312,445.979858 
	C175.061783,443.889404 172.506790,441.954407 169.951797,440.019379 
	C169.028137,439.227539 168.104477,438.435730 167.086761,436.985291 
	C165.103455,433.606354 163.214203,430.886078 160.921112,427.584290 
	C159.898331,429.421204 159.425797,430.269897 158.953247,431.118591 
	C157.650421,429.000580 156.347580,426.882538 155.335938,424.365417 
	C156.096420,423.422333 156.565674,422.878296 157.372406,422.172119 
	C184.397064,411.156219 206.535645,393.927246 226.136154,373.160278 
	C226.113434,373.147736 226.140625,373.186127 226.428452,373.066162 
	C227.656097,371.895050 228.595917,370.843903 229.612549,369.731506 
	C229.689362,369.670258 229.793259,369.503479 230.053833,369.332550 
	C238.611923,358.489746 246.909439,347.817841 255.155273,337.126434 
	C255.103577,337.106903 255.150177,337.207123 255.506653,337.077972 
	C268.515717,332.414001 281.168274,327.879181 294.656769,323.044769 
	C293.930145,325.662506 293.524872,327.874329 292.702148,329.918152 
	C291.312805,333.369537 291.595825,336.282379 295.249603,337.828918 
	C298.866516,339.359833 300.880768,337.110565 302.152161,334.041656 
	C305.586945,325.750732 308.970245,317.438538 312.567932,309.090515 
	C313.012268,308.894440 313.137970,308.672119 313.462524,308.254852 
	C327.904022,296.661011 339.518097,283.087128 348.428040,267.362488 
	C348.711426,268.413391 348.834625,269.207489 348.836304,270.398132 
	C347.571259,295.587463 341.299835,319.093353 330.379974,341.297302 
	C305.381653,392.127563 268.834106,433.044678 222.794693,465.712341 
	C217.262466,469.637787 211.652328,473.453491 206.078308,477.320068 
M244.464020,395.920288 
	C237.591019,402.202057 230.722031,408.488220 223.842911,414.763306 
	C221.359055,417.029053 220.064911,419.517456 222.549286,422.547394 
	C225.213272,425.796448 228.016586,425.042206 230.711197,422.570068 
	C236.961243,416.836029 243.308487,411.196442 249.307755,405.209351 
	C250.666077,403.853790 251.904602,400.543671 251.183868,399.365448 
	C250.078339,397.558258 247.226486,396.819336 244.464020,395.920288 
M276.617981,355.949127 
	C271.976715,362.232910 267.362122,368.536652 262.682678,374.791901 
	C260.430725,377.802216 260.284302,380.662323 263.333832,383.090698 
	C266.424896,385.552155 268.859436,384.127869 270.890015,381.356659 
	C275.608154,374.917572 280.323395,368.476257 285.075226,362.062103 
	C287.025635,359.429321 288.255127,356.711792 285.238953,354.156494 
	C282.229675,351.607117 279.418427,352.417786 276.617981,355.949127 
z"/>
<path fill="#214D32" opacity="1.000000" stroke="none" 
d="
M230.053833,369.332550 
	C227.523941,364.189941 232.798477,362.196930 234.826172,359.037109 
	C238.846710,352.771759 243.722488,347.028870 248.532242,341.311920 
	C250.040070,339.519684 252.468628,338.502106 254.841370,337.137939 
	C246.909439,347.817841 238.611923,358.489746 230.053833,369.332550 
z"/>
<path fill="#214D32" opacity="1.000000" stroke="none" 
d="
M226.428452,373.066162 
	C226.228775,371.376434 225.179993,368.780670 229.150742,369.590912 
	C228.595917,370.843903 227.656097,371.895050 226.428452,373.066162 
z"/>
<path fill="#F1F5E7" opacity="1.000000" stroke="none" 
d="
M306.147949,296.171814 
	C264.475555,328.775146 219.304108,336.014130 170.888763,314.932800 
	C95.415855,282.069946 70.920067,185.599625 120.860275,120.081177 
	C152.688187,78.324928 205.057663,60.218018 256.150970,73.304008 
	C305.440491,85.928009 343.704376,128.088089 350.583313,179.203674 
	C356.844055,225.725510 341.519196,264.739075 306.147949,296.171814 
M185.909454,289.392487 
	C186.374619,289.071686 186.839783,288.750916 187.340424,288.382904 
	C187.340424,288.382904 187.398911,288.391174 188.041397,288.277222 
	C189.373901,287.193848 190.706421,286.110504 192.000198,284.999786 
	C192.000198,284.999786 192.026779,285.038849 192.546219,284.892700 
	C192.871399,284.476257 193.196579,284.059845 193.607666,283.540619 
	C193.607666,283.540619 193.696198,283.440063 194.232956,283.091522 
	C196.097549,278.385468 197.962128,273.679413 199.996826,268.053009 
	C200.014099,259.147369 199.877121,250.236893 200.156525,241.339478 
	C200.226868,239.099823 201.630783,236.902039 202.753647,234.668625 
	C202.753647,234.668625 202.963654,234.411270 203.693344,234.329117 
	C207.280930,237.043045 211.283020,239.353561 214.384689,242.540405 
	C228.199356,256.734375 241.374252,271.569794 255.525513,285.411560 
	C267.225006,296.855164 285.991211,293.066772 293.644775,278.606323 
	C299.050873,268.392181 296.791199,257.157043 287.420166,247.716705 
	C273.226654,233.418091 258.997803,219.154343 244.847839,204.812744 
	C239.910904,199.808929 239.891815,198.332977 244.718475,193.202438 
	C252.589935,184.835373 260.605927,176.604477 268.536499,168.292755 
	C275.317047,161.186356 282.307251,154.260025 288.758179,146.864502 
	C295.646545,138.967499 296.132507,127.217911 290.586273,118.443832 
	C285.119781,109.796013 274.565399,105.156319 264.597229,108.231415 
	C259.891388,109.683113 255.132111,112.636497 251.673111,116.161598 
	C237.567169,130.537033 223.943405,145.386093 210.168716,160.085709 
	C207.238708,163.212479 204.311905,165.360382 200.638992,160.486832 
	C200.411102,159.998123 200.183197,159.509399 200.044556,158.084442 
	C199.943069,148.401291 199.841583,138.718124 199.812485,128.276215 
	C198.349625,121.181122 195.276764,115.152702 188.548157,111.362022 
	C188.548157,111.362022 188.400848,111.296814 187.961807,110.807129 
	C179.045334,105.920425 170.288071,105.622215 161.926025,111.896194 
	C161.926025,111.896194 161.792755,111.685181 161.216766,111.796555 
	C160.799286,112.189720 160.381790,112.582886 159.995346,113.003693 
	C159.995346,113.003693 159.978989,112.966606 159.331924,113.153313 
	C157.526642,115.416054 155.721344,117.678802 154.000534,119.986107 
	C154.000534,119.986107 153.933365,119.918053 153.350845,120.319473 
	C152.343109,125.227020 151.335373,130.134583 150.187958,135.676086 
	C150.238922,136.103104 150.289902,136.530106 150.135620,137.880310 
	C150.203461,146.267670 150.271317,154.655045 150.186005,163.877396 
	C150.236526,165.570847 150.287033,167.264313 150.125351,169.879562 
	C150.198151,177.933960 150.270966,185.988342 150.191986,194.951523 
	C150.242142,198.953384 150.292297,202.955246 150.130997,207.878891 
	C150.205551,214.600342 150.280090,221.321793 150.202255,228.817184 
	C150.252274,229.863770 150.302307,230.910339 150.135590,232.877869 
	C150.115097,240.670303 149.993332,248.464279 150.110840,256.254639 
	C150.185150,261.182434 150.616379,266.104858 150.846497,271.536499 
	C150.908752,271.694122 150.971024,271.851776 150.981827,272.762482 
	C152.538116,278.761414 155.599518,283.717072 160.993851,287.015991 
	C160.993851,287.015991 160.900009,287.079468 161.182281,287.675720 
	C162.348236,288.237610 163.514206,288.799530 164.663803,289.194977 
	C164.663803,289.194977 164.725388,289.350464 165.197083,289.877502 
	C167.810211,290.461884 170.423340,291.046265 173.807114,291.831635 
	C174.860870,291.784637 175.914627,291.737640 177.519394,291.819702 
	C177.692932,291.745728 177.866455,291.671753 178.712387,291.686523 
	C179.799164,291.380585 180.885956,291.074677 182.592514,290.823822 
	C183.496353,290.362549 184.400192,289.901276 185.358734,289.125275 
	C185.358734,289.125275 185.330276,289.445129 185.909454,289.392487 
z"/>
<path fill="#214D32" opacity="1.000000" stroke="none" 
d="
M230.053833,369.332550 
	C227.523941,364.189941 232.798477,362.196930 234.826172,359.037109 
	C238.846710,352.771759 243.722488,347.028870 248.532242,341.311920 
	C250.040070,339.519684 252.468628,338.502106 254.841370,337.137939 
	C246.909439,347.817841 238.611923,358.489746 230.053833,369.332550 
z"/>
<path fill="#214D32" opacity="1.000000" stroke="none" 
d="
M226.428452,373.066162 
	C226.228775,371.376434 225.179993,368.780670 229.150742,369.590912 
	C228.595917,370.843903 227.656097,371.895050 226.428452,373.066162 
z"/>
<path fill="#F1F5E7" opacity="1.000000" stroke="none" 
d="
M306.147949,296.171814 
	C264.475555,328.775146 219.304108,336.014130 170.888763,314.932800 
	C95.415855,282.069946 70.920067,185.599625 120.860275,120.081177 
	C152.688187,78.324928 205.057663,60.218018 256.150970,73.304008 
	C305.440491,85.928009 343.704376,128.088089 350.583313,179.203674 
	C356.844055,225.725510 341.519196,264.739075 306.147949,296.171814 
M185.909454,289.392487 
	C186.374619,289.071686 186.839783,288.750916 187.340424,288.382904 
	C187.340424,288.382904 187.398911,288.391174 188.041397,288.277222 
	C189.373901,287.193848 190.706421,286.110504 192.000198,284.999786 
	C192.000198,284.999786 192.026779,285.038849 192.546219,284.892700 
	C192.871399,284.476257 193.196579,284.059845 193.607666,283.540619 
	C193.607666,283.540619 193.696198,283.440063 194.232956,283.091522 
	C196.097549,278.385468 197.962128,273.679413 199.996826,268.053009 
	C200.014099,259.147369 199.877121,250.236893 200.156525,241.339478 
	C200.226868,239.099823 201.630783,236.902039 202.753647,234.668625 
	C202.753647,234.668625 202.963654,234.411270 203.693344,234.329117 
	C207.280930,237.043045 211.283020,239.353561 214.384689,242.540405 
	C228.199356,256.734375 241.374252,271.569794 255.525513,285.411560 
	C267.225006,296.855164 285.991211,293.066772 293.644775,278.606323 
	C299.050873,268.392181 296.791199,257.157043 287.420166,247.716705 
	C273.226654,233.418091 258.997803,219.154343 244.847839,204.812744 
	C239.910904,199.808929 239.891815,198.332977 244.718475,193.202438 
	C252.589935,184.835373 260.605927,176.604477 268.536499,168.292755 
	C275.317047,161.186356 282.307251,154.260025 288.758179,146.864502 
	C295.646545,138.967499 296.132507,127.217911 290.586273,118.443832 
	C285.119781,109.796013 274.565399,105.156319 264.597229,108.231415 
	C259.891388,109.683113 255.132111,112.636497 251.673111,116.161598 
	C237.567169,130.537033 223.943405,145.386093 210.168716,160.085709 
	C207.238708,163.212479 204.311905,165.360382 200.638992,160.486832 
	C200.411102,159.998123 200.183197,159.509399 200.044556,158.084442 
	C199.943069,148.401291 199.841583,138.718124 199.812485,128.276215 
	C198.349625,121.181122 195.276764,115.152702 188.548157,111.362022 
	C188.548157,111.362022 188.400848,111.296814 187.961807,110.807129 
	C179.045334,105.920425 170.288071,105.622215 161.926025,111.896194 
	C161.926025,111.896194 161.792755,111.685181 161.216766,111.796555 
	C160.799286,112.189720 160.381790,112.582886 159.995346,113.003693 
	C159.995346,113.003693 159.978989,112.966606 159.331924,113.153313 
	C157.526642,115.416054 155.721344,117.678802 154.000534,119.986107 
	C154.000534,119.986107 153.933365,119.918053 153.350845,120.319473 
	C152.343109,125.227020 151.335373,130.134583 150.187958,135.676086 
	C150.238922,136.103104 150.289902,136.530106 150.135620,137.880310 
	C150.203461,146.267670 150.271317,154.655045 150.186005,163.877396 
	C150.236526,165.570847 150.287033,167.264313 150.125351,169.879562 
	C150.198151,177.933960 150.270966,185.988342 150.191986,194.951523 
	C150.242142,198.953384 150.292297,202.955246 150.130997,207.878891 
	C150.205551,214.600342 150.280090,221.321793 150.202255,228.817184 
	C150.252274,229.863770 150.302307,230.910339 150.135590,232.877869 
	C150.115097,240.670303 149.993332,248.464279 150.110840,256.254639 
	C150.185150,261.182434 150.616379,266.104858 150.846497,271.536499 
	C150.908752,271.694122 150.971024,271.851776 150.981827,272.762482 
	C152.538116,278.761414 155.599518,283.717072 160.993851,287.015991 
	C160.993851,287.015991 160.900009,287.079468 161.182281,287.675720 
	C162.348236,288.237610 163.514206,288.799530 164.663803,289.194977 
	C164.663803,289.194977 164.725388,289.350464 165.197083,289.877502 
	C167.810211,290.461884 170.423340,291.046265 173.807114,291.831635 
	C174.860870,291.784637 175.914627,291.737640 177.519394,291.819702 
	C177.692932,291.745728 177.866455,291.671753 178.712387,291.686523 
	C179.799164,291.380585 180.885956,291.074677 182.592514,290.823822 
	C183.496353,290.362549 184.400192,289.901276 185.358734,289.125275 
	C185.358734,289.125275 185.330276,289.445129 185.909454,289.392487 
z"/>
<path fill="#214D32" opacity="1.000000" stroke="none" 
d="
M230.053833,369.332550 
	C227.523941,364.189941 232.798477,362.196930 234.826172,359.037109 
	C238.846710,352.771759 243.722488,347.028870 248.532242,341.311920 
	C250.040070,339.519684 252.468628,338.502106 254.841370,337.137939 
	C246.909439,347.817841 238.611923,358.489746 230.053833,369.332550 
z"/>
<path fill="#214D32" opacity="1.000000" stroke="none" 
d="
M226.428452,373.066162 
	C226.228775,371.376434 225.179993,368.780670 229.150742,369.590912 
	C228.595917,370.843903 227.656097,371.895050 226.428452,373.066162 
z"/>
<path fill="#214D32" opacity="1.000000" stroke="none" 
d="
M313.462524,308.254852 
	C313.445251,303.395874 313.918762,299.070618 319.893829,296.757568 
	C324.530457,294.962677 329.105255,291.809265 330.238678,285.930725 
	C330.431793,284.929138 331.572327,284.093018 332.319519,283.218353 
	C336.088379,278.806641 339.816772,274.358124 343.686523,270.036346 
	C344.741211,268.858429 346.236725,268.075256 347.898895,267.108337 
	C339.518097,283.087128 327.904022,296.661011 313.462524,308.254852 
z"/>
<path fill="#214D32" opacity="1.000000" stroke="none" 
d="
M342.567169,337.044891 
	C342.195648,337.270569 341.826630,337.268250 341.459656,337.239349 
	C341.449493,337.238586 341.461792,336.952576 341.463623,336.799591 
	C341.832367,336.804138 342.201141,336.808655 342.567169,337.044891 
z"/>
<path fill="#1E5031" opacity="1.000000" stroke="none" 
d="
M296.415710,328.373718 
	C297.699249,328.153687 298.761169,328.243530 299.823120,328.333344 
	C299.611145,330.070831 299.497498,331.833618 299.065002,333.514374 
	C299.009796,333.728973 296.495575,333.646637 296.468292,333.480469 
	C296.210144,331.908905 296.244202,330.289337 296.415710,328.373718 
z"/>
<path fill="#277144" opacity="1.000000" stroke="none" 
d="
M202.421860,234.685013 
	C201.630783,236.902039 200.226868,239.099823 200.156525,241.339478 
	C199.877121,250.236893 200.014099,259.147369 199.574936,268.607422 
	C197.756912,272.176208 196.253418,275.147125 195.007965,278.222565 
	C194.341248,279.868805 194.119003,281.695038 193.696198,283.440063 
	C193.696198,283.440063 193.607666,283.540619 193.255722,283.537048 
	C192.611450,284.035248 192.319122,284.537048 192.026794,285.038849 
	C192.026779,285.038849 192.000198,284.999786 191.624695,285.005829 
	C189.031082,285.073334 186.858643,285.186859 187.398911,288.391174 
	C187.398911,288.391174 187.340424,288.382904 186.992035,288.314453 
	C186.205856,288.645752 185.768066,289.045441 185.330276,289.445129 
	C185.330276,289.445129 185.358734,289.125275 184.985947,289.163513 
	C183.733017,289.724060 182.852875,290.246399 181.972733,290.768738 
	C180.885956,291.074677 179.799164,291.380585 178.352234,291.440369 
	C177.812424,291.019867 177.632782,290.845520 177.453156,290.671204 
	C177.291565,291.011017 177.129974,291.350830 176.968384,291.690643 
	C175.914627,291.737640 174.860870,291.784637 173.304657,291.402832 
	C170.109924,290.432831 167.417664,289.891632 164.725388,289.350464 
	C164.725388,289.350464 164.663803,289.194977 164.697052,288.895782 
	C163.453552,288.090881 162.176773,287.585175 160.900009,287.079468 
	C160.900009,287.079468 160.993851,287.015991 160.975891,286.684631 
	C157.649734,281.571991 154.341522,276.790710 151.033310,272.009430 
	C150.971024,271.851776 150.908752,271.694122 151.159485,270.982300 
	C151.627075,258.348694 151.810059,246.269440 151.867233,234.189590 
	C151.870728,233.447769 150.880310,232.701248 150.352325,231.956924 
	C150.302307,230.910339 150.252274,229.863770 150.633194,228.281525 
	C151.231827,221.082214 151.413528,214.418762 151.514648,207.754105 
	C151.518600,207.494431 150.750717,207.223038 150.342468,206.957108 
	C150.292297,202.955246 150.242142,198.953384 150.623459,194.349304 
	C151.225296,185.749390 151.407379,177.751862 151.513657,169.753311 
	C151.517105,169.493393 150.747040,169.223175 150.337555,168.957764 
	C150.287033,167.264313 150.236526,165.570847 150.618973,163.313141 
	C151.224747,154.416824 151.408813,146.084930 151.518036,137.752045 
	C151.521454,137.492264 150.750717,137.222336 150.340881,136.957123 
	C150.289902,136.530106 150.238922,136.103104 150.605164,135.223938 
	C151.992706,129.820541 152.963028,124.869301 153.933365,119.918053 
	C153.933365,119.918053 154.000534,119.986107 154.311798,119.938339 
	C156.408371,117.582588 158.193680,115.274597 159.978989,112.966606 
	C159.978989,112.966606 159.995346,113.003693 160.293549,112.975830 
	C160.992096,112.527046 161.392426,112.106117 161.792755,111.685181 
	C161.792755,111.685181 161.926025,111.896194 162.166672,111.869751 
	C168.563446,109.535149 174.751480,107.870026 181.385971,109.938499 
	C183.645767,110.643051 186.058167,110.858101 188.400848,111.296814 
	C188.400848,111.296814 188.548157,111.362022 188.518097,111.758430 
	C191.871353,117.341209 197.271729,121.289452 198.196106,128.011871 
	C198.251694,128.416031 199.204681,128.696793 199.740082,129.034973 
	C199.841583,138.718124 199.943069,148.401291 199.797958,158.711334 
	C199.929947,159.902008 200.308533,160.465790 200.687103,161.029572 
	C204.311905,165.360382 207.238708,163.212479 210.168716,160.085709 
	C223.943405,145.386093 237.567169,130.537033 251.673111,116.161598 
	C255.132111,112.636497 259.891388,109.683113 264.597229,108.231415 
	C274.565399,105.156319 285.119781,109.796013 290.586273,118.443832 
	C296.132507,127.217911 295.646545,138.967499 288.758179,146.864502 
	C282.307251,154.260025 275.317047,161.186356 268.536499,168.292755 
	C260.605927,176.604477 252.589935,184.835373 244.718475,193.202438 
	C239.891815,198.332977 239.910904,199.808929 244.847839,204.812744 
	C258.997803,219.154343 273.226654,233.418091 287.420166,247.716705 
	C296.791199,257.157043 299.050873,268.392181 293.644775,278.606323 
	C285.991211,293.066772 267.225006,296.855164 255.525513,285.411560 
	C241.374252,271.569794 228.199356,256.734375 214.384689,242.540405 
	C211.283020,239.353561 207.280930,237.043045 203.257202,234.170227 
	C202.688004,234.235886 202.554932,234.460449 202.421860,234.685013 
z"/>
<path fill="#457654" opacity="1.000000" stroke="none" 
d="
M150.243958,232.417389 
	C150.880310,232.701248 151.870728,233.447769 151.867233,234.189590 
	C151.810059,246.269440 151.627075,258.348694 151.180008,270.728882 
	C150.616379,266.104858 150.185150,261.182434 150.110840,256.254639 
	C149.993332,248.464279 150.115097,240.670303 150.243958,232.417389 
z"/>
<path fill="#457654" opacity="1.000000" stroke="none" 
d="
M150.238251,137.418716 
	C150.750717,137.222336 151.521454,137.492264 151.518036,137.752045 
	C151.408813,146.084930 151.224747,154.416824 150.695557,162.895630 
	C150.271317,154.655045 150.203461,146.267670 150.238251,137.418716 
z"/>
<path fill="#457654" opacity="1.000000" stroke="none" 
d="
M188.181335,111.051971 
	C186.058167,110.858101 183.645767,110.643051 181.385971,109.938499 
	C174.751480,107.870026 168.563446,109.535149 162.079987,111.779984 
	C170.288071,105.622215 179.045334,105.920425 188.181335,111.051971 
z"/>
<path fill="#457654" opacity="1.000000" stroke="none" 
d="
M150.231445,169.418671 
	C150.747040,169.223175 151.517105,169.493393 151.513657,169.753311 
	C151.407379,177.751862 151.225296,185.749390 150.699341,193.894913 
	C150.270966,185.988342 150.198151,177.933960 150.231445,169.418671 
z"/>
<path fill="#457654" opacity="1.000000" stroke="none" 
d="
M150.236725,207.417999 
	C150.750717,207.223038 151.518600,207.494431 151.514648,207.754105 
	C151.413528,214.418762 151.231827,221.082214 150.709381,227.894562 
	C150.280090,221.321793 150.205551,214.600342 150.236725,207.417999 
z"/>
<path fill="#457654" opacity="1.000000" stroke="none" 
d="
M199.776276,128.655594 
	C199.204681,128.696793 198.251694,128.416031 198.196106,128.011871 
	C197.271729,121.289452 191.871353,117.341209 188.580750,111.809067 
	C195.276764,115.152702 198.349625,121.181122 199.776276,128.655594 
z"/>
<path fill="#457654" opacity="1.000000" stroke="none" 
d="
M151.007568,272.385956 
	C154.341522,276.790710 157.649734,281.571991 160.940582,286.728943 
	C155.599518,283.717072 152.538116,278.761414 151.007568,272.385956 
z"/>
<path fill="#457654" opacity="1.000000" stroke="none" 
d="
M193.964569,283.265808 
	C194.119003,281.695038 194.341248,279.868805 195.007965,278.222565 
	C196.253418,275.147125 197.756912,272.176208 199.489868,269.067566 
	C197.962128,273.679413 196.097549,278.385468 193.964569,283.265808 
z"/>
<path fill="#457654" opacity="1.000000" stroke="none" 
d="
M153.642105,120.118759 
	C152.963028,124.869301 151.992706,129.820541 150.675018,134.906952 
	C151.335373,130.134583 152.343109,125.227020 153.642105,120.118759 
z"/>
<path fill="#457654" opacity="1.000000" stroke="none" 
d="
M159.655457,113.059959 
	C158.193680,115.274597 156.408371,117.582588 154.269562,119.916061 
	C155.721344,117.678802 157.526642,115.416054 159.655457,113.059959 
z"/>
<path fill="#457654" opacity="1.000000" stroke="none" 
d="
M164.961243,289.613953 
	C167.417664,289.891632 170.109924,290.432831 172.919327,291.302338 
	C170.423340,291.046265 167.810211,290.461884 164.961243,289.613953 
z"/>
<path fill="#457654" opacity="1.000000" stroke="none" 
d="
M187.720154,288.334198 
	C186.858643,285.186859 189.031082,285.073334 191.644073,285.019531 
	C190.706421,286.110504 189.373901,287.193848 187.720154,288.334198 
z"/>
<path fill="#457654" opacity="1.000000" stroke="none" 
d="
M161.041138,287.377594 
	C162.176773,287.585175 163.453552,288.090881 164.705231,288.979004 
	C163.514206,288.799530 162.348236,288.237610 161.041138,287.377594 
z"/>
<path fill="#457654" opacity="1.000000" stroke="none" 
d="
M182.282623,290.796265 
	C182.852875,290.246399 183.733017,289.724060 184.958588,289.320862 
	C184.400192,289.901276 183.496353,290.362549 182.282623,290.796265 
z"/>
<path fill="#457654" opacity="1.000000" stroke="none" 
d="
M200.663055,160.758209 
	C200.308533,160.465790 199.929947,159.902008 199.753326,159.179459 
	C200.183197,159.509399 200.411102,159.998123 200.663055,160.758209 
z"/>
<path fill="#457654" opacity="1.000000" stroke="none" 
d="
M192.286499,284.965759 
	C192.319122,284.537048 192.611450,284.035248 193.212769,283.588440 
	C193.196579,284.059845 192.871399,284.476257 192.286499,284.965759 
z"/>
<path fill="#457654" opacity="1.000000" stroke="none" 
d="
M185.619873,289.418823 
	C185.768066,289.045441 186.205856,288.645752 186.974289,288.338074 
	C186.839783,288.750916 186.374619,289.071686 185.619873,289.418823 
z"/>
<path fill="#457654" opacity="1.000000" stroke="none" 
d="
M177.243896,291.755188 
	C177.129974,291.350830 177.291565,291.011017 177.453156,290.671204 
	C177.632782,290.845520 177.812424,291.019867 178.016037,291.395966 
	C177.866455,291.671753 177.692932,291.745728 177.243896,291.755188 
z"/>
<path fill="#457654" opacity="1.000000" stroke="none" 
d="
M161.504761,111.740868 
	C161.392426,112.106117 160.992096,112.527046 160.278046,112.962021 
	C160.381790,112.582886 160.799286,112.189720 161.504761,111.740868 
z"/>
<path fill="#457654" opacity="1.000000" stroke="none" 
d="
M202.587753,234.676819 
	C202.554932,234.460449 202.688004,234.235886 202.892365,234.211304 
	C202.963654,234.411270 202.753647,234.668625 202.587753,234.676819 
z"/>
</svg>
